<svg viewBox="0 0 512.1 512.1" xmlns="http://www.w3.org/2000/svg"><path d="M207.454 0c-50.752 0-91.876 41.128-91.876 91.872 0 50.74 41.124 91.872 91.876 91.872 50.748 0 91.88-41.132 91.88-91.872C299.33 41.128 258.198 0 207.454 0zm51.748 104.096H220.37v39.612c0 6.576-5.428 11.92-12 11.92s-12-5.348-12-11.92v-39.612h-40.836c-6.584 0-11.928-5.424-11.928-12s5.348-12 11.928-12h40.836V40.028c0-6.572 5.428-11.92 12-11.92s12 5.352 12 11.92v40.068h38.832c6.576 0 11.928 5.424 11.928 12s-5.352 12-11.928 12z"/><path d="M450.73 236.096h-14.7c-10.328-32-31.66-63.456-55.66-86.832V76.336c0-2.212-2.312-4-4.516-4-21.272 0-40.448 10.188-52.468 25.912-3.316 60.924-54.064 109.48-115.804 109.48-36.78 0-69.656-17.252-90.9-44.072-8.064 8.728-15.36 18.196-21.684 28.312-.232.288-.504.536-.716.844a18.905 18.905 0 0 1-15.672 8.34c-10.416 0-18.892-8.472-18.892-18.888 0-8.1 5.148-15.288 12.804-17.892 6.28-2.124 9.632-8.936 7.5-15.208-2.12-6.268-8.928-9.628-15.208-7.5A42.86 42.86 0 0 0 35.73 182.26c0 23.612 19.188 42.82 42.788 42.864-7.864 20.752-12.856 43.232-12.856 66.708.004 59.096 26.708 115.384 74.708 150.996v44.236c0 13.54 12.328 25.036 25.868 25.036h17.132c13.54 0 25-11.496 25-25.036v-12.288c32 8.028 64 8.028 92 0v12.288c0 13.54 13.348 25.036 26.884 25.036h17.128c13.536 0 23.988-11.496 23.988-25.036v-44.236c32-23.98 56.076-58.732 67.66-94.732h14.7c13.536 0 25.64-12.036 25.64-25.576v-61.372c0-13.54-12.104-25.052-25.64-25.052zm-117.308 23.632c-14.292 0-25.88-11.588-25.88-25.884s11.584-25.884 25.88-25.884 25.888 11.588 25.888 25.884-11.596 25.884-25.888 25.884z"/></svg>