<svg xmlns="http://www.w3.org/2000/svg" viewBox="0 0 50 50" xml:space="preserve"><path d="M25 1C11.767 1 1 11.767 1 25s10.767 24 24 24 24-10.767 24-24S38.233 1 25 1zm0 46C12.869 47 3 37.131 3 25S12.869 3 25 3s22 9.869 22 22-9.869 22-22 22z"/><path d="M23 13h4c2.757 0 5 2.243 5 5h2c0-3.86-3.141-7-7-7h-1V8h-2v3h-1c-3.859 0-7 3.14-7 7v1c0 3.86 3.141 7 7 7h4c2.757 0 5 2.243 5 5v1c0 2.757-2.243 5-5 5h-4c-2.757 0-5-2.243-5-5h-2c0 3.86 3.141 7 7 7h1v3h2v-3h1c3.859 0 7-3.14 7-7v-1c0-3.86-3.141-7-7-7h-4c-2.757 0-5-2.243-5-5v-1c0-2.757 2.243-5 5-5z"/></svg>